# xmcd
#
# Track frame offsets: 
#        183
#        12803
#        36928
#        54160
#        67470
#        88630
#        95465
#        105503
#        119088
#        138490
#        155233
#        169565
#
# Disc length: 2506 seconds
#
# Revision: 0
# Processed by: cddbd v1.5.2PL0 Copyright (c) Steve Scherf et al.
# Submitted via: ExactAudioCopy v0.99pb4
#
DISCID=a309c80c
DTITLE=S.Foster - Favorite
DYEAR=1900
DGENRE=Folk
TTITLE0=OH. Susanna
TTITLE1=Old Black Joe
TTITLE2=Beautiful Dreamer
TTITLE3=Ring Ring De Banjo
TTITLE4=Tribute to Foster Medley
TTITLE5=Jeannie with the Light Brown Hair (part 1)
TTITLE6=Jeannie with the Light Brown Hair (part 2)
TTITLE7=Steamboat Round the Bend
TTITLE8=Come, Where My Love Lies Dreaming
TTITLE9=My Old Kentucky Home
TTITLE10=Camp town Races
TTITLE11=Old Folks at Home
EXTD=
EXTT0=
EXTT1=
EXTT2=
EXTT3=
EXTT4=
EXTT5=
EXTT6=
EXTT7=
EXTT8=
EXTT9=
EXTT10=
EXTT11=
PLAYORDER=
